<?xml version="1.0" encoding="utf-8"?>
<!-- Generator: Adobe Illustrator 23.0.0, SVG Export Plug-In . SVG Version: 6.00 Build 0)  -->
<svg version="1.1" id="Layer_1" xmlns="http://www.w3.org/2000/svg" xmlns:xlink="http://www.w3.org/1999/xlink" x="0px" y="0px"
	 viewBox="0 0 500 500" style="enable-background:new 0 0 500 500;" xml:space="preserve">
<style type="text/css">
	.st0{fill:#FFFFFF;}
</style>
<rect width="500" height="500"/>
<g>
	<g>
		<path class="st0" d="M126.85,294.84v39.23h-6.4l-0.45-3.82c-2.13,3.31-5.56,4.43-8.92,4.43c-8.14,0-14.25-5.39-14.25-14.48
			c0-9.54,6-14.48,14.09-14.48c2.92,0,7.46,1.57,9.09,4.43v-15.32H126.85z M103.68,320.21c0,4.83,3.48,8.14,7.86,8.14
			c4.32,0,8.02-3.14,8.02-8.14c0-4.83-3.7-8.08-8.02-8.08C107.16,312.12,103.68,315.21,103.68,320.21z"/>
		<path class="st0" d="M154.74,306.4h6.57v27.67h-6.45l-0.34-4.04c-1.57,3.25-5.89,4.83-8.98,4.88c-8.19,0.06-14.25-4.99-14.25-14.7
			c0-9.54,6.34-14.54,14.42-14.48c3.7,0,7.24,1.74,8.81,4.49L154.74,306.4z M138.13,320.21c0,5.27,3.65,8.42,8.19,8.42
			c10.77,0,10.77-16.78,0-16.78C141.77,311.84,138.13,314.93,138.13,320.21z"/>
		<path class="st0" d="M175.55,298.6v7.86h7.63v5.89h-7.69v11.95c0,2.64,1.46,3.93,3.59,3.93c1.07,0,2.3-0.34,3.31-0.84l1.91,5.84
			c-1.96,0.79-3.59,1.12-5.67,1.18c-6,0.23-9.93-3.2-9.93-10.1v-11.95h-5.16v-5.89h5.16v-7.13L175.55,298.6z"/>
		<path class="st0" d="M210.22,306.4h6.57v27.67h-6.45l-0.34-4.04c-1.57,3.25-5.89,4.83-8.98,4.88c-8.19,0.06-14.25-4.99-14.25-14.7
			c0-9.54,6.34-14.54,14.42-14.48c3.7,0,7.24,1.74,8.81,4.49L210.22,306.4z M193.61,320.21c0,5.27,3.65,8.42,8.19,8.42
			c10.77,0,10.77-16.78,0-16.78C197.26,311.84,193.61,314.93,193.61,320.21z"/>
		<path class="st0" d="M229.41,294.78v15.38c2.47-3.2,5.5-4.15,8.64-4.15c7.86,0,11.34,5.33,11.34,13.47v14.59h-6.85v-14.53
			c0-5.05-2.64-7.18-6.29-7.18c-4.04,0-6.85,3.42-6.85,7.58v14.14h-6.85v-39.28H229.41z"/>
		<path class="st0" d="M282.66,320.26c0,7.97-5.44,14.42-14.42,14.42s-14.37-6.45-14.37-14.42c0-7.91,5.5-14.42,14.31-14.42
			C276.99,305.84,282.66,312.35,282.66,320.26z M260.71,320.26c0,4.21,2.53,8.14,7.52,8.14c4.99,0,7.52-3.93,7.52-8.14
			c0-4.15-2.92-8.19-7.52-8.19C263.3,312.07,260.71,316.11,260.71,320.26z"/>
		<path class="st0" d="M314.86,320.26c0,7.97-5.44,14.42-14.42,14.42s-14.37-6.45-14.37-14.42c0-7.91,5.5-14.42,14.31-14.42
			C309.19,305.84,314.86,312.35,314.86,320.26z M292.92,320.26c0,4.21,2.53,8.14,7.52,8.14c4.99,0,7.52-3.93,7.52-8.14
			c0-4.15-2.92-8.19-7.52-8.19C295.5,312.07,292.92,316.11,292.92,320.26z"/>
		<path class="st0" d="M326.25,294.84v22.67l9.31-11.11h8.19v0.39l-11.28,12.63l12.85,14.14v0.51h-8.25l-10.83-12.52v12.52h-6.85
			v-39.23H326.25z"/>
		<path class="st0" d="M356.38,330.53c0,5.33-8.08,5.33-8.08,0C348.29,325.2,356.38,325.2,356.38,330.53z"/>
		<path class="st0" d="M369.5,298.6c0,5.33-8.08,5.33-8.08,0C361.42,293.27,369.5,293.27,369.5,298.6z M362.04,306.29v27.78h6.85
			v-27.78H362.04z"/>
		<path class="st0" d="M403.17,320.26c0,7.97-5.44,14.42-14.42,14.42s-14.37-6.45-14.37-14.42c0-7.91,5.5-14.42,14.31-14.42
			C397.5,305.84,403.17,312.35,403.17,320.26z M381.23,320.26c0,4.21,2.53,8.14,7.52,8.14s7.52-3.93,7.52-8.14
			c0-4.15-2.92-8.19-7.52-8.19C383.81,312.07,381.23,316.11,381.23,320.26z"/>
	</g>
	<g>
		<g>
			<path class="st0" d="M250,245.11c-5.07,0-10.13-1.93-13.99-5.78l-20.24-20.24c-3.74-3.74-5.79-8.7-5.79-13.99
				c0-5.28,2.06-10.25,5.79-13.99l20.24-20.24c3.74-3.74,8.7-5.79,13.99-5.79s10.25,2.06,13.99,5.79l20.24,20.24
				c7.71,7.71,7.71,20.26,0,27.97l-20.24,20.24C260.13,243.18,255.07,245.11,250,245.11z M241.7,233.64c4.58,4.58,12.03,4.58,16.6,0
				l20.24-20.24c2.22-2.22,3.44-5.17,3.44-8.3c0-3.14-1.22-6.08-3.44-8.3l-20.24-20.24c-4.58-4.58-12.03-4.58-16.6,0l-20.24,20.24
				c-2.22,2.22-3.44,5.17-3.44,8.3c0,3.14,1.22,6.08,3.44,8.3L241.7,233.64L241.7,233.64z"/>
		</g>
		<g>
			<path class="st0" d="M260.81,255.6h13.69c0,5.51-4.46,9.97-9.97,9.97c-5.49,0-9.97-4.46-9.97-9.97v-34.72
				c6.82-2.02,11.82-8.33,11.82-15.79c0-9.08-7.38-16.46-16.46-16.46c-9.08,0-16.46,7.38-16.46,16.46c0,7.46,5,13.77,11.82,15.79
				v34.72c0,10.64,8.64,19.28,19.26,19.28c10.64,0,19.28-8.64,19.28-19.28v-22.77L260.81,255.6z M249.92,212.24
				c-3.95,0-7.15-3.22-7.15-7.15c0-3.95,3.2-7.15,7.15-7.15c3.95,0,7.15,3.2,7.15,7.15C257.07,209.02,253.87,212.24,249.92,212.24z"
				/>
		</g>
	</g>
</g>
</svg>
